<svg xmlns="http://www.w3.org/2000/svg" viewBox="0 0 32 32" width="32" height="32">
  <defs>
    <linearGradient id="primaryGradient" x1="0%" y1="0%" x2="100%" y2="100%">
      <stop offset="0%" style="stop-color:#667eea;stop-opacity:1" />
      <stop offset="100%" style="stop-color:#764ba2;stop-opacity:1" />
    </linearGradient>
    <linearGradient id="secondaryGradient" x1="0%" y1="0%" x2="100%" y2="100%">
      <stop offset="0%" style="stop-color:#4facfe;stop-opacity:1" />
      <stop offset="100%" style="stop-color:#00f2fe;stop-opacity:1" />
    </linearGradient>
  </defs>
  
  <!-- Background circle -->
  <circle cx="16" cy="16" r="15" fill="url(#primaryGradient)" stroke="#fff" stroke-width="2"/>
  
  <!-- Nepali Rupee symbol (stylized) -->
  <g transform="translate(16,16)" fill="white">
    <!-- Rs symbol background -->
    <rect x="-8" y="-8" width="16" height="16" rx="2" fill="url(#secondaryGradient)" opacity="0.3"/>
    
    <!-- R letter -->
    <path d="M-6,-4 L-6,4 M-6,-4 L-2,-4 Q0,-4 0,-2 Q0,0 -2,0 L-6,0 M-2,0 L2,4" 
          stroke="white" stroke-width="1.5" fill="none" stroke-linecap="round" stroke-linejoin="round"/>
    
    <!-- s letter -->
    <path d="M2,-2 Q4,-4 6,-2 Q4,0 2,0 Q4,0 6,2 Q4,4 2,2" 
          stroke="white" stroke-width="1.2" fill="none" stroke-linecap="round" stroke-linejoin="round"/>
    
    <!-- Decorative lines -->
    <line x1="-7" y1="-6" x2="7" y2="-6" stroke="white" stroke-width="0.8" opacity="0.8"/>
    <line x1="-7" y1="6" x2="7" y2="6" stroke="white" stroke-width="0.8" opacity="0.8"/>
  </g>
</svg>
